<svg xmlns="http://www.w3.org/2000/svg" version="1.1" xmlns:xlink="http://www.w3.org/1999/xlink" xmlns:svgjs="http://svgjs.dev/svgjs" width="2000" height="1141" viewBox="0 0 2000 1141"><g transform="matrix(1,0,0,1,-1.2121211814677508,-0.45067691040810587)"><svg viewBox="0 0 396 226" data-background-color="#ffffff" preserveAspectRatio="xMidYMid meet" height="1141" width="2000" xmlns="http://www.w3.org/2000/svg" xmlns:xlink="http://www.w3.org/1999/xlink"><g id="tight-bounds" transform="matrix(1,0,0,1,0.2400000060694083,0.08926641696078264)"><svg viewBox="0 0 395.52 225.82146716607843" height="225.82146716607843" width="395.52"><g><svg viewBox="0 0 395.52 225.82146716607843" height="225.82146716607843" width="395.52"><g transform="matrix(1,0,0,1,0,139.56672621658788)"><svg viewBox="0 0 395.52 86.25474094949055" height="86.25474094949055" width="395.52"><g id="textblocktransform"><svg viewBox="0 0 395.52 86.25474094949055" height="86.25474094949055" width="395.52" id="textblock"><g><svg viewBox="0 0 395.52 86.25474094949055" height="86.25474094949055" width="395.52"><g transform="matrix(1,0,0,1,0,0)"><svg width="395.52" viewBox="0.08000000566244125 -34.400001525878906 184.5 40.2400016784668" height="86.25474094949055" data-palette-color="#096a2e"><path d="M6.68-20.44L6.68-20.44Q6.68-17.6 8.36-17.32L8.36-17.32Q8.24-16.76 7.44-16.76L7.44-16.76Q5.8-16.76 5.12-18.72L5.12-18.72Q4.8-19.64 4.8-20.96 4.8-22.28 5.84-24.16L5.84-24.16Q8.24-28.52 14.64-29.8L14.64-29.8Q16.92-30.24 19.64-30.24 22.36-30.24 24.58-30.88 26.8-31.52 27.86-32.32 28.92-33.12 29.86-33.76 30.8-34.4 31.42-34.4 32.04-34.4 32.04-33.84L32.04-33.84Q32.04-32.52 29.44-31.16 26.84-29.8 22.68-29.4L22.68-29.4Q20.96-28.48 20-22.88L20-22.88Q18.92-16.44 18.2-12.36 17.48-8.28 16.5-5.38 15.52-2.48 14.28-0.26 13.04 1.96 11.02 3.3 9 4.64 6.3 4.64 3.6 4.64 1.92 2.88L1.92 2.88Q0.08 0.96 0.08-2.32L0.08-2.32Q0.08-7.8 3-10.72L3-10.72Q4.76-12.48 6.92-12.48L6.92-12.48Q7.44-12.48 7.78-12.24 8.12-12 8.24-11.52L8.24-11.52Q4.84-11.52 2.72-8L2.72-8Q1.16-5.4 1.16-2.6L1.16-2.6Q1.16 2 4.32 3L4.32 3Q5.04 3.24 5.88 3.24L5.88 3.24Q8.36 3.24 10.22 1.2 12.08-0.84 13.06-3.96 14.04-7.08 14.94-10.98 15.84-14.88 16.44-18.4 17.04-21.92 18.06-24.98 19.08-28.04 20.4-29.28L20.4-29.28 19.6-29.28Q11.4-29.28 8.16-24.68L8.16-24.68Q6.68-22.6 6.68-20.44ZM27 0L27 0Q23.72 0 23.72-5.16L23.72-5.16Q23.72-8.24 25.24-11.92L25.24-11.92Q27.36-17.08 30.8-18.96L30.8-18.96Q32.28-19.76 33.56-19.76 34.84-19.76 35.58-19.2 36.32-18.64 36.52-18.08L36.52-18.08 36.76-17.56Q36.64-16.88 36.08-16.88L36.08-16.88Q35.44-16.88 35.34-17.18 35.24-17.48 35.12-17.7 35-17.92 34.56-18.3 34.12-18.68 33.56-18.68L33.56-18.68Q30.96-18.68 28.84-14L28.84-14Q26.44-8.6 26.44-3.84L26.44-3.84Q26.44-1.44 27.4-1.44L27.4-1.44Q28.16-1.44 29.54-3.14 30.92-4.84 32.44-7.4L32.44-7.4Q35.08-11.8 36.72-15.04L36.72-15.04Q38.08-17.92 39.52-17.92L39.52-17.92Q40.28-17.92 40.28-17L40.28-17Q39.92-16.24 39.36-14.84 38.8-13.44 37.88-9.28 36.96-5.12 36.96-1 36.96 3.12 38.2 3.12L38.2 3.12Q38.68 3.12 39.08 2.7 39.48 2.28 39.8 1.44L39.8 1.44Q39.92 1 40.36 1L40.36 1Q40.52 1 40.6 1.12 40.68 1.24 40.6 1.52 40.52 1.8 40.32 2.3 40.12 2.8 39.46 3.64 38.8 4.48 38.08 4.48L38.08 4.48Q36.4 4.48 35.5 2.28 34.6 0.08 34.6-2.92 34.6-5.92 35.04-8.68L35.04-8.68 34.64-8.68Q29.56 0 27 0ZM50.4-3.68L50.4-3.68Q50.4-1.28 51.68-1.28L51.68-1.28Q53.32-1.28 55.28-5.68L55.28-5.68Q57.56-10.72 57.56-15.12L57.56-15.12Q57.56-18.12 56-18.12 54.44-18.12 52.5-15.58 50.55-13.04 49.12-9.88 47.68-6.72 46.66-4.18 45.64-1.64 45.64-1.36L45.64-1.36Q45.64-0.76 45.04-0.76L45.04-0.76Q43.84-0.76 43.84-3.96L43.84-3.96Q43.84-10.32 45.12-16.74 46.4-23.16 48.16-27.02 49.92-30.88 51.44-30.88L51.44-30.88Q52.08-30.88 52.08-30.24L52.08-30.24Q49.96-25.56 48.42-19 46.88-12.44 46.12-6.56L46.12-6.56 46.4-6.56Q48.23-11.24 50.59-14.96L50.59-14.96Q51.92-17.04 53.42-18.26 54.92-19.48 56.32-19.48L56.32-19.48Q59.16-19.48 59.84-15.8L59.84-15.8Q60.08-14.72 60.08-13.52L60.08-13.52Q60.08-10.56 58.8-7.08L58.8-7.08Q57-2.12 54.08-0.56L54.08-0.56Q53.08 0 52 0L52 0Q49.28 0 49.28-3.6L49.28-3.6Q49.28-5.52 50.34-8.02 51.4-10.52 53.12-11.72L53.12-11.72Q53.48-11.92 53.72-11.56L53.72-11.56Q53.76-11.36 53.68-11.28L53.68-11.28Q52.16-10.08 51.28-7.76 50.4-5.44 50.4-3.68ZM68.67 5.84L68.67 5.84Q66.35 5.84 65.25 3.4 64.15 0.96 64.15-3.92 64.15-8.8 65.59-15.48 67.03-22.16 68.97-26.56 70.91-30.96 72.35-30.96L72.35-30.96Q73.03-30.96 73.03-30.16L73.03-30.16Q72.19-28.24 70.91-24.38 69.63-20.52 68.77-17.24 67.91-13.96 67.21-9.56 66.51-5.16 66.51-2.02 66.51 1.12 67.13 2.82 67.75 4.52 68.83 4.52L68.83 4.52Q69.75 4.52 70.59 3.66 71.43 2.8 71.79 1.96L71.79 1.96Q71.99 1.52 72.51 1.72L72.51 1.72Q72.71 1.8 72.61 2.06 72.51 2.32 72.29 2.72 72.07 3.12 71.51 3.96L71.51 3.96Q70.31 5.84 68.67 5.84ZM83.75-19.4L83.75-19.4Q86.79-19.4 86.79-15.84L86.79-15.84Q86.79-13.8 85.43-11.56L85.43-11.56Q83.11-7.84 79.27-7.84L79.27-7.84Q78.67-7.84 78.27-8.04 77.87-8.24 77.67-8.64L77.67-8.64Q80.51-8.64 82.87-11.92L82.87-11.92Q84.79-14.56 84.79-16.76L84.79-16.76Q84.79-18.4 83.47-18.4L83.47-18.4Q80.83-18.4 78.55-14.28L78.55-14.28Q76.11-9.8 76.11-5.08L76.11-5.08Q76.11-1.08 78.39-0.28L78.39-0.28Q78.83-0.12 79.51-0.12 80.19-0.12 80.95-0.46 81.71-0.8 82.23-1.28L82.23-1.28Q83.27-2.24 83.95-3.4L83.95-3.4Q84.11-3.72 84.55-3.72L84.55-3.72Q85.27-3.72 85.23-3.48L85.23-3.48Q85.11-3.04 84.33-2 83.55-0.96 82.89-0.34 82.23 0.28 81.17 0.78 80.11 1.28 79.03 1.28L79.03 1.28Q74.79 1.28 73.63-2.72L73.63-2.72Q73.27-4.08 73.27-5.52L73.27-5.52Q73.27-8.2 74.51-11.36L74.51-11.36Q76.47-16.16 79.91-18.28L79.91-18.28Q81.79-19.4 83.75-19.4ZM122.03-18.44L122.03-18.44Q126.79-16.92 126.79-10.64L126.79-10.64Q126.79-5.4 122.33-0.38 117.87 4.64 110.07 4.64L110.07 4.64Q103.95 4.64 102.11 1.08L102.11 1.08Q101.47-0.12 101.47-1.38 101.47-2.64 102.11-3.96L102.11-3.96Q103.31-6.52 105.59-6.52L105.59-6.52Q105.79-6.52 105.87-6.3 105.95-6.08 105.85-5.84 105.75-5.6 105.55-5.6L105.55-5.6Q104.19-5.6 103.27-3.84L103.27-3.84Q102.63-2.68 102.63-1.64 102.63-0.6 103.11 0.36L103.11 0.36Q104.51 3.08 109.35 3.08L109.35 3.08Q115.43 3.08 119.91-2.04L119.91-2.04Q123.39-5.96 124.19-10.64L124.19-10.64Q124.39-11.76 124.39-12.72L124.39-12.72Q124.39-15.48 122.75-16.84L122.75-16.84Q121.87-17.56 120.59-17.68L120.59-17.68Q118.43-16.76 115.95-16.76L115.95-16.76Q115.67-16.76 115.67-17.3 115.67-17.84 115.95-17.84L115.95-17.84Q119.99-17.84 123.03-21.64L123.03-21.64Q125.27-24.48 125.43-27.2L125.43-27.2Q125.35-29.6 123.55-29.72L123.55-29.72Q121.59-29.72 119.35-26.92 117.11-24.12 115.31-20.12 113.51-16.12 112.01-11.94 110.51-7.76 109.67-4.78 108.83-1.8 108.83-1.28 108.83-0.76 108.27-0.76L108.27-0.76Q107.07-0.76 107.07-3.96L107.07-3.96Q107.07-11.68 108.81-18.96 110.55-26.24 112.67-28.68L112.67-28.68Q106.95-27.88 103.39-24.64L103.39-24.64Q101.35-22.84 101.35-20.72L101.35-20.72Q101.35-19.68 102.15-19.68L102.15-19.68Q101.99-19.12 101.27-19.12 100.55-19.12 100.01-19.68 99.47-20.24 99.47-21.24L99.47-21.24Q99.47-23.6 102.33-25.62 105.19-27.64 108.51-28.62 111.83-29.6 114.15-29.6L114.15-29.6Q114.79-29.6 114.79-28.96L114.79-28.96Q112.19-22.92 110.07-11.32L110.07-11.32 110.39-11.32Q112.71-18.56 115.87-24.28L115.87-24.28Q117.55-27.36 119.59-29.14 121.63-30.92 123.75-30.92L123.75-30.92Q127.11-30.92 127.75-28.2L127.75-28.2Q127.87-27.64 127.87-27L127.87-27Q127.87-24.84 126.21-22.38 124.55-19.92 122.03-18.44ZM133.38 0L133.38 0Q130.1 0 130.1-5.16L130.1-5.16Q130.1-8.24 131.62-11.92L131.62-11.92Q133.74-17.08 137.18-18.96L137.18-18.96Q138.66-19.76 139.94-19.76 141.22-19.76 141.96-19.2 142.7-18.64 142.9-18.08L142.9-18.08 143.14-17.56Q143.02-16.88 142.46-16.88L142.46-16.88Q141.82-16.88 141.72-17.18 141.62-17.48 141.5-17.7 141.38-17.92 140.94-18.3 140.5-18.68 139.94-18.68L139.94-18.68Q137.34-18.68 135.22-14L135.22-14Q132.82-8.6 132.82-3.84L132.82-3.84Q132.82-1.44 133.78-1.44L133.78-1.44Q134.54-1.44 135.92-3.14 137.3-4.84 138.82-7.4L138.82-7.4Q141.46-11.8 143.1-15.04L143.1-15.04Q144.46-17.92 145.9-17.92L145.9-17.92Q146.66-17.92 146.66-17L146.66-17Q146.3-16.24 145.74-14.84 145.18-13.44 144.26-9.28 143.34-5.12 143.34-1 143.34 3.12 144.58 3.12L144.58 3.12Q145.06 3.12 145.46 2.7 145.86 2.28 146.18 1.44L146.18 1.44Q146.3 1 146.74 1L146.74 1Q146.9 1 146.98 1.12 147.06 1.24 146.98 1.52 146.9 1.8 146.7 2.3 146.5 2.8 145.84 3.64 145.18 4.48 144.46 4.48L144.46 4.48Q142.78 4.48 141.88 2.28 140.98 0.08 140.98-2.92 140.98-5.92 141.42-8.68L141.42-8.68 141.02-8.68Q135.94 0 133.38 0ZM151.86-6.48L152.22-6.48Q157.38-19.24 162.26-19.24L162.26-19.24Q164.3-19.24 164.3-17.28L164.3-17.28Q164.02-16.36 163.58-14.86 163.14-13.36 162.4-9.48 161.66-5.6 161.66-2.68L161.66-2.68Q161.66 1.56 162.9 1.56L162.9 1.56Q163.38 1.56 163.82 1.18 164.26 0.8 164.42 0.8L164.42 0.8Q164.98 0.8 164.42 1.68L164.42 1.68Q164.22 1.96 163.68 2.44 163.14 2.92 162.58 2.92L162.58 2.92Q161.06 2.92 160.2 0.74 159.34-1.44 159.34-4.92L159.34-4.92Q159.34-10.44 161.06-17.04L161.06-17.04Q161.22-17.56 160.74-17.56L160.74-17.56Q160.42-17.56 160.02-17.24L160.02-17.24Q158.1-15.56 155.98-11.68 153.86-7.8 152.66-4.74 151.46-1.68 151.46-1.18 151.46-0.68 150.9-0.68L150.9-0.68Q149.62-0.68 149.62-3.84L149.62-3.84Q149.62-9.8 150.84-14.64 152.06-19.48 153.78-19.48L153.78-19.48Q154.5-19.48 154.5-18.6L154.5-18.6Q152.66-12.64 151.86-6.48L151.86-6.48ZM179.38-12.44L179.38-12.44Q180.7-14.56 180.7-16.42 180.7-18.28 179.54-18.28L179.54-18.28Q178.14-18.28 176.36-15.82 174.58-13.36 173.2-10.24 171.82-7.12 170.86-4.46 169.9-1.8 169.9-1.24L169.9-1.24Q169.86-0.76 169.34-0.76L169.34-0.76Q168.14-0.76 168.14-3.96L168.14-3.96Q168.14-10.32 169.42-16.74 170.7-23.16 172.46-27.02 174.22-30.88 175.74-30.88L175.74-30.88Q176.38-30.88 176.38-30.24L176.38-30.24Q174.26-25.56 172.7-18.84L172.7-18.84Q171.42-13.64 170.54-7.68L170.54-7.68 170.86-7.68Q175.42-19.4 179.98-19.4L179.98-19.4Q182.82-19.4 182.82-16.16L182.82-16.16Q182.82-14.08 181.28-11.76 179.74-9.44 177.38-8.68L177.38-8.68Q177.86-8.24 179.34-3.2L179.34-3.2Q179.86-1.4 180.78 0.08 181.7 1.56 182.76 1.56 183.82 1.56 184.34 0.8L184.34 0.8Q184.58 0.8 184.58 1 184.58 1.2 184.38 1.6L184.38 1.6Q183.5 2.8 182.22 2.92L182.22 2.92Q180.58 2.92 179.14 1.24 177.7-0.44 176.9-2.44 176.1-4.44 175.4-6.42 174.7-8.4 174.54-8.64L174.54-8.64Q174.26-8.84 174.18-9.12L174.18-9.12Q177.34-9.12 179.38-12.44Z" opacity="1" transform="matrix(1,0,0,1,0,0)" fill="#096a2e" class="wordmark-text-0" data-fill-palette-color="primary" id="text-0"></path></svg></g></svg></g></svg></g></svg></g><g transform="matrix(1,0,0,1,138.157974003902,0)"><svg viewBox="0 0 119.20405199219596 119.20405199219596" height="119.20405199219596" width="119.20405199219596"><g><svg></svg></g><g id="icon-0"><svg viewBox="0 0 119.20405199219596 119.20405199219596" height="119.20405199219596" width="119.20405199219596"><g><path xmlns="http://www.w3.org/2000/svg" d="M35.761 119.204c-19.75 0-35.761-16.011-35.761-35.761v-47.682c0-19.75 16.011-35.761 35.761-35.761h47.682c19.75 0 35.761 16.011 35.761 35.761v47.682c0 19.75-16.011 35.761-35.761 35.761z" fill="#096a2e" fill-rule="nonzero" stroke="none" stroke-width="1" stroke-linecap="butt" stroke-linejoin="miter" stroke-miterlimit="10" stroke-dasharray="" stroke-dashoffset="0" font-family="none" font-weight="none" font-size="none" text-anchor="none" style="mix-blend-mode: normal" data-fill-palette-color="accent"></path></g><g transform="matrix(1,0,0,1,23.840810398439196,26.071380910119302)"><svg viewBox="0 0 71.52243119531757 67.06129017195735" height="67.06129017195735" width="71.52243119531757"><g><svg xmlns="http://www.w3.org/2000/svg" xmlns:xlink="http://www.w3.org/1999/xlink" version="1.1" x="0" y="0" viewBox="5 7.699999809265137 89.90792083740234 84.30000305175781" enable-background="new 0 0 100 100" xml:space="preserve" height="67.06129017195735" width="71.52243119531757" class="icon-s-0" data-fill-palette-color="quaternary" id="s-0"><g fill="#ffffff" data-fill-palette-color="quaternary"><path d="M92.5 24.5L51.6 8c-0.6-0.3-1.2-0.3-1.5-0.3-0.6 0-1.1 0.2-1.4 0.3l-41 16.7c-1.9 0.8-2.8 3-2.4 4.7C5.8 32.2 8 33 9.2 33H14c0 0.2 0 0.3 0 0.5V81H9.4c-1.2 0-2.1 0.8-2.1 2s1 2 2.1 2h80.9c1.2 0 2.1-0.8 2.1-2s-1-2-2.1-2H86V33.4c0-0.1 0-0.2-0.1-0.4h5c2.3 0 3.6-2.1 3.9-3.6C95.2 27.8 94.5 25.4 92.5 24.5zM22 33.4V81h-4V33.5c0-0.2 0-0.3 0-0.5H22C22 33.1 22 33.3 22 33.4zM30 34v47h-4V33.4c0-0.1 0-0.3 0-0.4h4.3C30.1 33.3 30 33.6 30 34zM65 33.4V81H34V34c0-0.4-0.1-0.7-0.2-1H65C65 33.1 65 33.2 65 33.4zM73 33.4V81h-4V33.4c0-0.1 0-0.2 0-0.4H73C73 33.1 73 33.2 73 33.4zM81 33.4V81h-4V33.4c0-0.1 0-0.2 0-0.4h4.1C81 33.1 81 33.2 81 33.4zM90.5 29H9.7c-0.1 0-0.2-0.1-0.2-0.3 0 0 0 0.1 0 0l40.7-16.7c0 0 0 0 0.1 0l40.4 16.3c0.1 0.2 0.1 0.3 0.1 0.4C90.7 28.9 90.6 29 90.5 29z" fill="#ffffff" data-fill-palette-color="quaternary"></path><path d="M53.2 63c0 1.8-1.6 2.7-3.3 2.7-2 0-3.6-0.9-4.6-1.6-0.7-0.5-1.3-0.4-1.8 0.3l-0.7 1c-0.5 0.7-0.4 1.4 0.2 1.8 1 0.7 2.8 1.9 5.4 2.2v1.8c0 0.7 0.4 1.1 1.3 1.1h0.2c0.8 0 1.2-0.5 1.2-1.3v-1.6c3.9-0.5 6.1-3.3 6.1-6.5 0-7.1-10.8-6.5-10.8-10.3 0-1.6 1.5-2.7 3.4-2.7 1.6 0 3 0.7 3.8 1.2 0.8 0.4 1.4 0.3 1.8-0.4l0.5-1.1c0.4-0.7 0.3-1.4-0.4-1.8-0.9-0.6-2.4-1.4-4.6-1.6v-1.8c0-0.7-0.4-1.1-1.2-1.1h-0.2c-0.9 0-1.3 0.4-1.3 1.3v1.7c-3.5 0.6-6 3.1-6 6.4C42.4 59.5 53.2 59.2 53.2 63z" fill="#ffffff" data-fill-palette-color="quaternary"></path><path d="M92.6 88H7.1C6 88 5 88.8 5 90s1 2 2.1 2h85.4c1.2 0 2.1-0.8 2.1-2S93.8 88 92.6 88z" fill="#ffffff" data-fill-palette-color="quaternary"></path></g></svg></g></svg></g></svg></g></svg></g><g></g></svg></g><defs></defs></svg><rect width="395.52" height="225.82146716607843" fill="none" stroke="none" visibility="hidden"></rect></g></svg></g></svg>