<svg xmlns="http://www.w3.org/2000/svg" version="1.1" xmlns:xlink="http://www.w3.org/1999/xlink" xmlns:svgjs="http://svgjs.dev/svgjs" width="128" height="128" viewBox="0 0 128 128"><g transform="matrix(0.8046875,0,0,0.8046875,12.760752631578946,15.059717580769174)"><svg viewBox="0 0 95 90" data-background-color="#ffffff" preserveAspectRatio="xMidYMid meet" height="121" width="128" xmlns="http://www.w3.org/2000/svg" xmlns:xlink="http://www.w3.org/1999/xlink"><g id="tight-bounds" transform="matrix(1,0,0,1,-0.24049999999999727,0.2372665866596435)"><svg viewBox="0 0 95.48100000000001 89.52546682668071" height="89.52546682668071" width="95.48100000000001"><g><svg viewBox="0 0 95.48100000000001 89.52546682668071" height="89.52546682668071" width="95.48100000000001"><g><svg viewBox="0 0 95.48100000000001 89.52546682668071" height="89.52546682668071" width="95.48100000000001"><g id="textblocktransform"><svg viewBox="0 0 95.48100000000001 89.52546682668071" height="89.52546682668071" width="95.48100000000001" id="textblock"><g><svg viewBox="0 0 95.48100000000001 89.52546682668071" height="89.52546682668071" width="95.48100000000001"><g><svg viewBox="0 0 95.48100000000001 89.52546682668071" height="89.52546682668071" width="95.48100000000001"><g><svg xmlns="http://www.w3.org/2000/svg" xmlns:xlink="http://www.w3.org/1999/xlink" version="1.1" x="0" y="0" viewBox="5 7.7 89.90791766082356 84.3" enable-background="new 0 0 100 100" xml:space="preserve" height="89.52546682668071" width="95.48100000000001" class="icon-icon-0" data-fill-palette-color="accent" id="icon-0"><g fill="#096a2e" data-fill-palette-color="accent"><path d="M92.5 24.5L51.6 8c-0.6-0.3-1.2-0.3-1.5-0.3-0.6 0-1.1 0.2-1.4 0.3l-41 16.7c-1.9 0.8-2.8 3-2.4 4.7C5.8 32.2 8 33 9.2 33H14c0 0.2 0 0.3 0 0.5V81H9.4c-1.2 0-2.1 0.8-2.1 2s1 2 2.1 2h80.9c1.2 0 2.1-0.8 2.1-2s-1-2-2.1-2H86V33.4c0-0.1 0-0.2-0.1-0.4h5c2.3 0 3.6-2.1 3.9-3.6C95.2 27.8 94.5 25.4 92.5 24.5zM22 33.4V81h-4V33.5c0-0.2 0-0.3 0-0.5H22C22 33.1 22 33.3 22 33.4zM30 34v47h-4V33.4c0-0.1 0-0.3 0-0.4h4.3C30.1 33.3 30 33.6 30 34zM65 33.4V81H34V34c0-0.4-0.1-0.7-0.2-1H65C65 33.1 65 33.2 65 33.4zM73 33.4V81h-4V33.4c0-0.1 0-0.2 0-0.4H73C73 33.1 73 33.2 73 33.4zM81 33.4V81h-4V33.4c0-0.1 0-0.2 0-0.4h4.1C81 33.1 81 33.2 81 33.4zM90.5 29H9.7c-0.1 0-0.2-0.1-0.2-0.3 0 0 0 0.1 0 0l40.7-16.7c0 0 0 0 0.1 0l40.4 16.3c0.1 0.2 0.1 0.3 0.1 0.4C90.7 28.9 90.6 29 90.5 29z" fill="#096a2e" data-fill-palette-color="accent"></path><path d="M53.2 63c0 1.8-1.6 2.7-3.3 2.7-2 0-3.6-0.9-4.6-1.6-0.7-0.5-1.3-0.4-1.8 0.3l-0.7 1c-0.5 0.7-0.4 1.4 0.2 1.8 1 0.7 2.8 1.9 5.4 2.2v1.8c0 0.7 0.4 1.1 1.3 1.1h0.2c0.8 0 1.2-0.5 1.2-1.3v-1.6c3.9-0.5 6.1-3.3 6.1-6.5 0-7.1-10.8-6.5-10.8-10.3 0-1.6 1.5-2.7 3.4-2.7 1.6 0 3 0.7 3.8 1.2 0.8 0.4 1.4 0.3 1.8-0.4l0.5-1.1c0.4-0.7 0.3-1.4-0.4-1.8-0.9-0.6-2.4-1.4-4.6-1.6v-1.8c0-0.7-0.4-1.1-1.2-1.1h-0.2c-0.9 0-1.3 0.4-1.3 1.3v1.7c-3.5 0.6-6 3.1-6 6.4C42.4 59.5 53.2 59.2 53.2 63z" fill="#096a2e" data-fill-palette-color="accent"></path><path d="M92.6 88H7.1C6 88 5 88.8 5 90s1 2 2.1 2h85.4c1.2 0 2.1-0.8 2.1-2S93.8 88 92.6 88z" fill="#096a2e" data-fill-palette-color="accent"></path></g></svg></g></svg></g></svg></g></svg></g></svg></g><g></g></svg></g><defs></defs></svg><rect width="95.48100000000001" height="89.52546682668071" fill="none" stroke="none" visibility="hidden"></rect></g></svg></g></svg>